<svg width="296" height="331" viewBox="0 0 296 331" fill="none" xmlns="http://www.w3.org/2000/svg">
<g id="Group 1">
<path id="Rectangle 1" d="M5 258.734V69.2659L150.345 5.47474L291 69.2234V258.777L150.345 322.525L5 258.734Z" fill="none" stroke="#18d26e" stroke-width="10"/>
<g id="AB">
<path d="M68.9238 230.1L91.2438 106.44C91.3638 105.96 91.6638 105.72 92.1438 105.72H118.244C118.724 105.72 119.024 105.96 119.144 106.44L140.564 230.1C140.684 230.7 140.444 231 139.844 231H119.864C119.384 231 119.084 230.7 118.964 230.1L116.984 216.96H92.5038L90.5238 230.1C90.4038 230.7 90.1038 231 89.6238 231H69.6438C69.1638 231 68.9238 230.7 68.9238 230.1ZM96.1038 197.7H113.384L106.004 147.12L104.924 140.46L104.204 147.12L96.1038 197.7ZM152.58 231C152.1 231 151.86 230.7 151.86 230.1L152.22 106.44C152.22 105.96 152.46 105.72 152.94 105.72H187.5C194.34 105.72 200.46 107.4 205.86 110.76C211.26 114 215.52 118.32 218.64 123.72C221.76 129.12 223.32 135 223.32 141.36C223.32 146.52 222.12 151.32 219.72 155.76C217.44 160.2 214.68 163.8 211.44 166.56C214.92 170.04 217.62 174.06 219.54 178.62C221.46 183.18 222.42 187.98 222.42 193.02C222.42 199.98 220.74 206.34 217.38 212.1C214.02 217.86 209.46 222.48 203.7 225.96C198.06 229.32 191.76 231 184.8 231H152.58ZM173.82 155.4H187.5C191.7 155.4 195.06 153.96 197.58 151.08C200.22 148.08 201.54 144.84 201.54 141.36C201.54 137.52 200.16 134.22 197.4 131.46C194.64 128.58 191.34 127.14 187.5 127.14H173.82V155.4ZM173.64 209.04H184.8C189.12 209.04 192.84 207.48 195.96 204.36C199.08 201.12 200.64 197.34 200.64 193.02C200.64 188.7 199.08 184.98 195.96 181.86C192.84 178.74 189.12 177.18 184.8 177.18H173.82L173.64 209.04Z" fill="#64FFDA"/>
<path d="M68.9238 230.1L67.9397 229.922L67.9238 230.01V230.1H68.9238ZM91.2438 106.44L90.2736 106.197L90.2656 106.23L90.2597 106.262L91.2438 106.44ZM119.144 106.44L120.129 106.269L120.123 106.233L120.114 106.197L119.144 106.44ZM140.564 230.1L139.578 230.271L139.581 230.283L139.583 230.296L140.564 230.1ZM118.964 230.1L117.975 230.249L117.978 230.273L117.983 230.296L118.964 230.1ZM116.984 216.96L117.973 216.811L117.844 215.96H116.984V216.96ZM92.5038 216.96V215.96H91.6431L91.5149 216.811L92.5038 216.96ZM90.5238 230.1L91.5043 230.296L91.509 230.273L91.5126 230.249L90.5238 230.1ZM96.1038 197.7L95.1163 197.542L94.9309 198.7H96.1038V197.7ZM113.384 197.7V198.7H114.54L114.373 197.556L113.384 197.7ZM106.004 147.12L106.993 146.976L106.992 146.968L106.991 146.96L106.004 147.12ZM104.924 140.46L105.911 140.3L103.93 140.353L104.924 140.46ZM104.204 147.12L105.191 147.278L105.195 147.253L105.198 147.227L104.204 147.12ZM69.9078 230.278L92.2279 106.618L90.2597 106.262L67.9397 229.922L69.9078 230.278ZM92.2139 106.683C92.2251 106.638 92.2343 106.624 92.2313 106.629C92.2271 106.636 92.2124 106.658 92.1834 106.681C92.1542 106.704 92.1268 106.716 92.1116 106.721C92.0987 106.725 92.1063 106.72 92.1438 106.72V104.72C91.7346 104.72 91.3019 104.825 90.9341 105.119C90.5694 105.411 90.3713 105.807 90.2736 106.197L92.2139 106.683ZM92.1438 106.72H118.244V104.72H92.1438V106.72ZM118.244 106.72C118.281 106.72 118.289 106.725 118.276 106.721C118.261 106.716 118.233 106.704 118.204 106.681C118.175 106.658 118.16 106.636 118.156 106.629C118.153 106.624 118.162 106.638 118.174 106.683L120.114 106.197C120.016 105.807 119.818 105.411 119.453 105.119C119.086 104.825 118.653 104.72 118.244 104.72V106.72ZM118.158 106.611L139.578 230.271L141.549 229.929L120.129 106.269L118.158 106.611ZM139.583 230.296C139.599 230.373 139.591 230.389 139.595 230.362C139.6 230.327 139.62 230.241 139.693 230.15C139.766 230.058 139.849 230.017 139.89 230.002C139.923 229.99 139.916 230 139.844 230V232C140.276 232 140.859 231.895 141.255 231.4C141.645 230.911 141.628 230.323 141.544 229.904L139.583 230.296ZM139.844 230H119.864V232H139.844V230ZM119.864 230C119.848 230 119.864 229.998 119.896 230.01C119.932 230.024 119.963 230.046 119.986 230.068C120.006 230.088 120.005 230.095 119.994 230.071C119.982 230.045 119.962 229.993 119.944 229.904L117.983 230.296C118.066 230.708 118.233 231.143 118.572 231.482C118.934 231.845 119.397 232 119.864 232V230ZM119.953 229.951L117.973 216.811L115.995 217.109L117.975 230.249L119.953 229.951ZM116.984 215.96H92.5038V217.96H116.984V215.96ZM91.5149 216.811L89.5349 229.951L91.5126 230.249L93.4926 217.109L91.5149 216.811ZM89.5432 229.904C89.5254 229.993 89.5058 230.045 89.4938 230.071C89.4824 230.095 89.4815 230.088 89.5016 230.068C89.524 230.046 89.5559 230.024 89.591 230.01C89.6238 229.998 89.639 230 89.6238 230V232C90.091 232 90.5531 231.845 90.9159 231.482C91.2545 231.143 91.4219 230.708 91.5043 230.296L89.5432 229.904ZM89.6238 230H69.6438V232H89.6238V230ZM69.6438 230C69.6262 230 69.6569 229.997 69.7134 230.021C69.776 230.047 69.838 230.092 69.8846 230.15C69.9275 230.204 69.9367 230.243 69.935 230.236C69.9328 230.228 69.9238 230.187 69.9238 230.1H67.9238C67.9238 230.507 68.0007 230.997 68.3229 231.4C68.6791 231.845 69.183 232 69.6438 232V230ZM96.1038 198.7H113.384V196.7H96.1038V198.7ZM114.373 197.556L106.993 146.976L105.014 147.264L112.394 197.844L114.373 197.556ZM106.991 146.96L105.911 140.3L103.937 140.62L105.017 147.28L106.991 146.96ZM103.93 140.353L103.21 147.013L105.198 147.227L105.918 140.567L103.93 140.353ZM103.216 146.962L95.1163 197.542L97.0912 197.858L105.191 147.278L103.216 146.962ZM151.86 230.1L150.86 230.097V230.1H151.86ZM152.22 106.44L153.22 106.443V106.44H152.22ZM205.86 110.76L205.332 111.609L205.339 111.613L205.346 111.617L205.86 110.76ZM219.72 155.76L218.84 155.284L218.835 155.294L218.831 155.303L219.72 155.76ZM211.44 166.56L210.792 165.799L209.967 166.501L210.733 167.267L211.44 166.56ZM219.54 178.62L218.619 179.008L218.619 179.008L219.54 178.62ZM217.38 212.1L218.244 212.604L218.244 212.604L217.38 212.1ZM203.7 225.96L204.212 226.819L204.217 226.816L203.7 225.96ZM173.82 155.4H172.82V156.4H173.82V155.4ZM197.58 151.08L196.829 150.419L196.828 150.421L197.58 151.08ZM197.4 131.46L196.678 132.152L196.686 132.16L196.693 132.167L197.4 131.46ZM173.82 127.14V126.14H172.82V127.14H173.82ZM173.64 209.04L172.64 209.034L172.634 210.04H173.64V209.04ZM195.96 204.36L196.667 205.067L196.674 205.06L196.68 205.054L195.96 204.36ZM173.82 177.18V176.18H172.826L172.82 177.174L173.82 177.18ZM152.58 230C152.563 230 152.593 229.997 152.65 230.021C152.712 230.047 152.774 230.092 152.821 230.15C152.864 230.204 152.873 230.243 152.871 230.236C152.869 230.228 152.86 230.187 152.86 230.1H150.86C150.86 230.507 150.937 230.997 151.259 231.4C151.616 231.845 152.119 232 152.58 232V230ZM152.86 230.103L153.22 106.443L151.22 106.437L150.86 230.097L152.86 230.103ZM153.22 106.44C153.22 106.354 153.241 106.473 153.107 106.607C152.974 106.741 152.854 106.72 152.94 106.72V104.72C152.546 104.72 152.067 104.819 151.693 105.193C151.319 105.567 151.22 106.046 151.22 106.44H153.22ZM152.94 106.72H187.5V104.72H152.94V106.72ZM187.5 106.72C194.168 106.72 200.102 108.355 205.332 111.609L206.388 109.911C200.818 106.445 194.512 104.72 187.5 104.72V106.72ZM205.346 111.617C210.602 114.771 214.74 118.969 217.774 124.22L219.506 123.22C216.3 117.671 211.919 113.229 206.375 109.902L205.346 111.617ZM217.774 124.22C220.805 129.465 222.32 135.172 222.32 141.36H224.32C224.32 134.828 222.716 128.775 219.506 123.22L217.774 124.22ZM222.32 141.36C222.32 146.358 221.16 150.994 218.84 155.284L220.6 156.236C223.081 151.646 224.32 146.682 224.32 141.36H222.32ZM218.831 155.303C216.6 159.647 213.917 163.137 210.792 165.799L212.089 167.321C215.444 164.463 218.28 160.753 220.61 156.217L218.831 155.303ZM210.733 167.267C214.121 170.655 216.748 174.567 218.619 179.008L220.462 178.232C218.492 173.553 215.719 169.425 212.147 165.853L210.733 167.267ZM218.619 179.008C220.486 183.443 221.42 188.111 221.42 193.02H223.42C223.42 187.849 222.434 182.917 220.462 178.232L218.619 179.008ZM221.42 193.02C221.42 199.811 219.783 205.996 216.516 211.596L218.244 212.604C221.697 206.684 223.42 200.149 223.42 193.02H221.42ZM216.516 211.596C213.241 217.21 208.801 221.71 203.183 225.104L204.217 226.816C210.119 223.25 214.799 218.51 218.244 212.604L216.516 211.596ZM203.188 225.101C197.713 228.363 191.591 230 184.8 230V232C191.929 232 198.408 230.277 204.212 226.819L203.188 225.101ZM184.8 230H152.58V232H184.8V230ZM173.82 156.4H187.5V154.4H173.82V156.4ZM187.5 156.4C191.957 156.4 195.603 154.858 198.333 151.738L196.828 150.421C194.517 153.062 191.443 154.4 187.5 154.4V156.4ZM198.331 151.741C201.106 148.587 202.54 145.119 202.54 141.36H200.54C200.54 144.561 199.334 147.573 196.829 150.419L198.331 151.741ZM202.54 141.36C202.54 137.25 201.051 133.697 198.107 130.753L196.693 132.167C199.269 134.743 200.54 137.79 200.54 141.36H202.54ZM198.122 130.768C195.182 127.7 191.624 126.14 187.5 126.14V128.14C191.056 128.14 194.099 129.46 196.678 132.152L198.122 130.768ZM187.5 126.14H173.82V128.14H187.5V126.14ZM172.82 127.14V155.4H174.82V127.14H172.82ZM173.64 210.04H184.8V208.04H173.64V210.04ZM184.8 210.04C189.392 210.04 193.364 208.37 196.667 205.067L195.253 203.653C192.316 206.59 188.849 208.04 184.8 208.04V210.04ZM196.68 205.054C199.972 201.636 201.64 197.61 201.64 193.02H199.64C199.64 197.07 198.189 200.604 195.24 203.666L196.68 205.054ZM201.64 193.02C201.64 188.428 199.97 184.456 196.667 181.153L195.253 182.567C198.19 185.504 199.64 188.972 199.64 193.02H201.64ZM196.667 181.153C193.364 177.85 189.392 176.18 184.8 176.18V178.18C188.849 178.18 192.316 179.63 195.253 182.567L196.667 181.153ZM184.8 176.18H173.82V178.18H184.8V176.18ZM172.82 177.174L172.64 209.034L174.64 209.046L174.82 177.186L172.82 177.174Z" fill="black"/>
</g>
</g>
</svg>
